<svg width="360" height="740" viewBox="0 0 360 740" fill="none" xmlns="http://www.w3.org/2000/svg">
  <!-- Phone Frame -->
  <rect x="10" y="10" width="340" height="720" rx="40" fill="#1a1a2e"/>
  <rect x="20" y="20" width="320" height="700" rx="30" fill="#ffffff"/>
  
  <!-- Screen Content -->
  <rect x="30" y="80" width="300" height="620" rx="20" fill="#f8f9fa"/>
  
  <!-- Status Bar -->
  <rect x="30" y="30" width="300" height="40" fill="#ffffff"/>
  <circle cx="50" cy="50" r="3" fill="#5e60ce"/>
  <circle cx="60" cy="50" r="3" fill="#5e60ce"/>
  <circle cx="70" cy="50" r="3" fill="#5e60ce"/>
  <text x="160" y="55" font-family="Inter" font-size="14" fill="#1a1a2e" text-anchor="middle">미완성수집소</text>
  <text x="310" y="55" font-family="Inter" font-size="12" fill="#6c757d" text-anchor="end">9:41</text>
  
  <!-- App Header -->
  <rect x="40" y="90" width="280" height="60" fill="#ffffff" rx="10"/>
  <text x="60" y="125" font-family="Inter" font-size="24" font-weight="bold" fill="#1a1a2e">미완성내용</text>
  
  <!-- Tab Bar -->
  <rect x="40" y="160" width="280" height="50" fill="#ffffff" rx="25"/>
  <rect x="50" y="170" width="80" height="30" fill="#5e60ce" rx="15"/>
  <text x="90" y="190" font-family="Inter" font-size="12" fill="#ffffff" text-anchor="middle">둘러보기</text>
  <text x="180" y="190" font-family="Inter" font-size="12" fill="#6c757d" text-anchor="middle">작성</text>
  <text x="270" y="190" font-family="Inter" font-size="12" fill="#6c757d" text-anchor="middle">내활동</text>
  
  <!-- Content Cards -->
  <rect x="40" y="230" width="280" height="120" fill="#ffffff" rx="15"/>
  <rect x="55" y="245" width="250" height="20" fill="#e5e7eb" rx="5"/>
  <rect x="55" y="275" width="200" height="15" fill="#f3f4f6" rx="5"/>
  <rect x="55" y="295" width="180" height="15" fill="#f3f4f6" rx="5"/>
  <rect x="55" y="320" width="60" height="20" fill="#5e60ce" rx="10"/>
  <text x="85" y="335" font-family="Inter" font-size="10" fill="#ffffff" text-anchor="middle">기여하기</text>
  
  <rect x="40" y="370" width="280" height="120" fill="#ffffff" rx="15"/>
  <rect x="55" y="385" width="250" height="20" fill="#e5e7eb" rx="5"/>
  <rect x="55" y="415" width="220" height="15" fill="#f3f4f6" rx="5"/>
  <rect x="55" y="435" width="190" height="15" fill="#f3f4f6" rx="5"/>
  <rect x="55" y="460" width="60" height="20" fill="#5e60ce" rx="10"/>
  <text x="85" y="475" font-family="Inter" font-size="10" fill="#ffffff" text-anchor="middle">기여하기</text>
  
  <rect x="40" y="510" width="280" height="120" fill="#ffffff" rx="15"/>
  <rect x="55" y="525" width="250" height="20" fill="#e5e7eb" rx="5"/>
  <rect x="55" y="555" width="210" height="15" fill="#f3f4f6" rx="5"/>
  <rect x="55" y="575" width="170" height="15" fill="#f3f4f6" rx="5"/>
  <rect x="55" y="600" width="60" height="20" fill="#5e60ce" rx="10"/>
  <text x="85" y="615" font-family="Inter" font-size="10" fill="#ffffff" text-anchor="middle">기여하기</text>
  
  <!-- Bottom Navigation -->
  <rect x="30" y="650" width="300" height="50" fill="#ffffff"/>
  <circle cx="90" cy="675" r="3" fill="#5e60ce"/>
  <circle cx="180" cy="675" r="3" fill="#9ca3af"/>
  <circle cx="270" cy="675" r="3" fill="#9ca3af"/>
</svg>